<svg viewBox="0 0 160 61" width="160" height="61" fill="none" xmlns="http://www.w3.org/2000/svg" ><path d="M33.14 47.145v-8.386h4.083c.566 0 1.076.122 1.52.355.444.244.788.577 1.02 1.02.245.444.367.954.367 1.542 0 .588-.122 1.11-.366 1.553a2.608 2.608 0 0 1-1.021 1.032c-.444.244-.943.355-1.52.355h-2.064v2.518h-2.02v.01Zm3.96-4.37c.29 0 .533-.1.722-.29.188-.199.288-.454.288-.787 0-.321-.1-.588-.288-.787-.189-.2-.433-.289-.721-.289h-1.953v2.152H37.1ZM42.607 46.856a3.047 3.047 0 0 1-1.198-1.142 3.105 3.105 0 0 1-.433-1.62 3.076 3.076 0 0 1 1.631-2.762c.51-.277 1.088-.41 1.72-.41.633 0 1.21.133 1.72.41.51.278.91.655 1.198 1.143.289.488.433 1.02.433 1.62a3.076 3.076 0 0 1-1.631 2.761c-.51.278-1.087.411-1.72.411-.643 0-1.21-.144-1.72-.41Zm2.763-1.686c.278-.277.422-.643.422-1.076 0-.443-.145-.798-.422-1.075a1.432 1.432 0 0 0-1.043-.422c-.41 0-.755.144-1.043.422-.277.277-.422.643-.422 1.075 0 .444.145.8.422 1.076.277.278.621.422 1.043.422.41 0 .755-.144 1.043-.422ZM49.816 46.923c-.433-.222-.755-.499-.932-.81-.189-.31-.289-.599-.289-.876h1.853c0 .166.09.322.267.455.177.133.444.2.799.2.344 0 .599-.056.765-.156.167-.1.244-.222.244-.366a.422.422 0 0 0-.166-.355c-.111-.089-.3-.155-.577-.188l-.954-.145c-1.465-.21-2.197-.82-2.197-1.819 0-.355.11-.676.322-.976.221-.3.543-.532.965-.71.433-.177.943-.266 1.531-.266.6 0 1.12.1 1.553.31.433.211.755.455.966.766.222.31.322.61.322.91h-1.842c0-.156-.09-.3-.267-.422-.177-.122-.421-.178-.732-.178-.3 0-.533.056-.699.167-.166.11-.244.233-.244.377 0 .233.244.388.732.455l1.01.144c1.431.2 2.153.843 2.153 1.92 0 .354-.111.676-.322.964-.211.288-.533.522-.966.699-.432.166-.965.255-1.586.255-.71-.011-1.276-.122-1.71-.355ZM57.66 40.146h-1.987V38.57h1.986v1.575Zm-.056 6.999h-1.898v-6.112h1.898v6.112ZM61.668 47.145c-.61 0-1.077-.144-1.398-.432-.322-.289-.478-.7-.478-1.232v-2.728h-1.01v-1.709h1.01v-1.896h1.898v1.896h1.442v1.709H61.69v2.351c0 .156.033.255.1.322.066.066.177.1.344.1h1.01v1.63h-1.476v-.01ZM66.583 40.146h-1.986V38.57h1.986v1.575Zm-.044 6.999H64.64v-6.112h1.897v6.112ZM72.12 47.145H69.6l-2.141-6.112h1.963l1.32 3.916H71l1.32-3.916h1.975l-2.174 6.112ZM76.338 46.856a3.152 3.152 0 0 1-1.21-1.142 3.113 3.113 0 0 1-.443-1.62c0-.599.144-1.142.443-1.619a3.077 3.077 0 0 1 1.21-1.143c.51-.277 1.087-.41 1.72-.41.599 0 1.154.133 1.653.41.5.278.888.644 1.176 1.12a2.976 2.976 0 0 1 .366 2.175h-4.682c.055.333.21.621.488.843.278.222.61.344.999.344a1.623 1.623 0 0 0 1.187-.477h1.908c-.088.277-.255.554-.499.854-.255.3-.599.555-1.043.765-.444.211-.954.322-1.553.322a3.788 3.788 0 0 1-1.72-.422Zm3.107-3.327c-.056-.333-.2-.61-.455-.843a1.372 1.372 0 0 0-.932-.333c-.4 0-.722.11-.977.333-.255.222-.433.499-.499.843h2.863ZM35.148 58.127h-2.009V49.74h2.009v3.172h3.395v-3.172h2.008v8.386h-2.008v-3.24h-3.395v3.24ZM43.161 57.994c-.355-.167-.632-.389-.82-.677a1.695 1.695 0 0 1-.29-.954c0-.61.223-1.098.678-1.464.455-.366 1.11-.555 1.964-.555h1.409v-.11a.878.878 0 0 0-.266-.655c-.178-.167-.41-.255-.7-.255-.255 0-.465.055-.62.166a.935.935 0 0 0-.323.377H42.33c.045-.333.178-.654.41-.954.234-.3.556-.554.955-.732.41-.188.888-.277 1.443-.277.577 0 1.087.1 1.52.31.433.211.765.489.998.843.233.355.355.755.355 1.187v3.883h-1.653l-.122-.533h-.066c-.145.167-.367.322-.688.455-.311.133-.677.2-1.077.2-.466 0-.887-.078-1.243-.255Zm2.608-1.453c.222-.211.344-.489.344-.843v-.145h-1.154c-.322 0-.577.056-.732.178a.543.543 0 0 0-.244.477c0 .2.077.355.222.477.144.11.355.177.632.177.388-.01.71-.122.932-.322ZM50.904 57.838a3.151 3.151 0 0 1-1.209-1.142 3.113 3.113 0 0 1-.444-1.62c0-.599.145-1.142.444-1.62a3.076 3.076 0 0 1 1.21-1.142c.51-.277 1.087-.41 1.72-.41.62 0 1.153.122 1.608.377.455.244.81.566 1.066.943.255.377.432.776.499 1.187h-1.93a1.237 1.237 0 0 0-.411-.577c-.2-.167-.489-.244-.844-.244-.41 0-.754.144-1.043.421-.277.278-.421.644-.421 1.076 0 .444.144.799.421 1.087.278.289.633.422 1.043.422.366 0 .644-.089.844-.255a1.2 1.2 0 0 0 .41-.61h1.942a3.184 3.184 0 0 1-.5 1.209c-.255.388-.61.699-1.065.943-.444.244-.987.366-1.62.366-.632 0-1.21-.133-1.72-.41ZM59.004 58.127h-1.898V49.74h1.898v4.98l2.152-2.706h2.153l-2.43 2.995 2.552 3.117h-2.153l-2.274-2.829v2.829ZM67.747 58.127V49.74h3.262c.788 0 1.51.188 2.164.554a4.14 4.14 0 0 1 1.553 1.509c.377.643.566 1.353.566 2.13 0 .787-.189 1.497-.566 2.13a4.059 4.059 0 0 1-1.553 1.508 4.361 4.361 0 0 1-2.164.555h-3.262Zm3.262-1.853a2.225 2.225 0 0 0 1.964-1.131c.2-.355.3-.755.3-1.21 0-.443-.1-.853-.3-1.209a2.225 2.225 0 0 0-1.964-1.131h-1.254v4.67h1.254v.011ZM77.4 57.994c-.355-.167-.632-.389-.82-.677a1.695 1.695 0 0 1-.289-.954c0-.61.222-1.098.677-1.464.455-.366 1.11-.555 1.964-.555h1.409v-.11a.878.878 0 0 0-.266-.655c-.178-.167-.41-.255-.7-.255-.255 0-.465.055-.62.166a.934.934 0 0 0-.322.377h-1.865c.045-.333.178-.654.41-.954.234-.3.556-.554.955-.732.41-.188.888-.277 1.443-.277.577 0 1.087.1 1.52.31.433.211.765.489.998.843.233.355.355.755.355 1.187v3.883h-1.653l-.122-.533h-.067c-.144.167-.366.322-.687.455-.311.133-.677.2-1.077.2-.466 0-.887-.078-1.243-.255Zm2.608-1.453c.222-.211.344-.489.344-.843v-.145h-1.154c-.322 0-.577.056-.732.178a.543.543 0 0 0-.244.477c0 .2.077.355.222.477.144.11.355.177.632.177.388-.01.71-.122.932-.322ZM87.887 52.015h2.008l-2.73 7.265c-.166.444-.388.755-.665.954-.278.2-.688.289-1.254.289h-1.62v-1.664h1.298c.211 0 .344-.089.41-.255l.078-.189-2.596-6.4h2.008l1.476 3.75h.255l1.332-3.75ZM91.527 57.905c-.433-.222-.755-.5-.932-.81-.189-.31-.289-.599-.289-.876h1.853c0 .166.09.322.267.455.177.133.444.2.799.2.344 0 .599-.056.765-.156.167-.1.244-.222.244-.366a.422.422 0 0 0-.166-.355c-.111-.089-.3-.155-.577-.189l-.954-.144c-1.465-.21-2.197-.82-2.197-1.819 0-.355.11-.677.321-.976.222-.3.544-.533.966-.71.433-.178.943-.266 1.531-.266.6 0 1.12.1 1.553.31.433.2.755.455.966.766.222.31.322.61.322.91h-1.842c0-.156-.09-.3-.267-.422-.177-.122-.421-.178-.732-.178-.3 0-.533.056-.699.167-.166.11-.244.233-.244.377 0 .233.244.388.732.455l1.01.144c1.431.2 2.153.843 2.153 1.919 0 .355-.111.676-.322.965-.211.288-.533.521-.966.699-.432.166-.965.255-1.586.255-.7-.011-1.265-.122-1.71-.355ZM28.572 13.758c-.799-1.531-1.92-2.707-3.373-3.539-1.443-.82-3.107-1.242-4.982-1.242H0v26.877h6.613v-7.055h13.604c1.875 0 3.54-.41 4.982-1.242 1.442-.821 2.574-2.008 3.373-3.561.799-1.542 1.198-3.339 1.198-5.369 0-2.008-.4-3.339-1.198-4.87Zm-5.415 5.502a3.248 3.248 0 0 1-3.251 3.25H6.613v-7.188h13.293a3.248 3.248 0 0 1 3.251 3.25v.688ZM56.235 19.026c0-1.131-.31-2.03-.932-2.707-.621-.676-1.41-1.01-2.374-1.01H39.702v13.523H33.09V.169h6.613v8.896h13.604c1.875 0 3.54.41 4.982 1.242 1.442.821 2.574 2.008 3.373 3.56.799 1.543 1.198 3.34 1.198 5.37v9.595h-6.646l.022-9.806ZM67.363 24.04c.799 1.53 1.92 2.707 3.373 3.538 1.442.821 3.107 1.243 4.982 1.243h20.216V.169h-6.613v8.818H75.718c-1.875 0-3.54.41-4.982 1.243-1.443.82-2.575 2.007-3.373 3.56-.8 1.542-1.199 3.34-1.199 5.37 0 2.007.4 3.35 1.199 4.88Zm5.414-5.502a3.248 3.248 0 0 1 3.251-3.25h13.293v7.188H76.028a3.248 3.248 0 0 1-3.25-3.25v-.688ZM95.935 31.86H72.778v.832h23.157v-.832ZM23.157 5.127H0v.832h23.157v-.832ZM109.179 6.803h7.623v21.996h6.614V7.013A6.842 6.842 0 0 0 116.569.17h-7.39v6.634ZM159.203 28.777h-29.294V21.5c0-5.08 4.139-9.218 9.221-9.218h11.473a2.728 2.728 0 1 0 0-5.458h-20.461V.159h20.461c5.182 0 9.399 4.215 9.399 9.396 0 5.18-4.217 9.395-9.399 9.395H139.13a2.552 2.552 0 0 0-2.552 2.551v.61h22.625v6.667Z" fill="#fff"/></svg>
